<svg xmlns="http://www.w3.org/2000/svg" width="494.512" height="501.29" viewBox="0 0 494.512 501.29">
    <defs>
        <style>
            .cls-1,.cls-4,.cls-7,.cls-8{fill:none}.cls-2{clip-path:url(#clip-path)}.cls-3{fill:#e7e8f9}.cls-4,.cls-7,.cls-8{stroke:#50aa9b;stroke-miterlimit:10}.cls-5{fill:#50aa9b}.cls-22,.cls-6{fill:#85d0be}.cls-7{stroke-width:1.705px}.cls-8{stroke-width:1.246px}.cls-9{fill:#50be9c}.cls-10{fill:#e6e1dc}.cls-11{fill:#c8c1be}.cls-12{fill:#0f2575}.cls-13{fill:#afe6ff}.cls-14{fill:#fff}.cls-15{fill:#7270b9}.cls-16{fill:#0073ba;opacity:.1}.cls-17{fill:#ffa587}.cls-18{fill:#f5876e}.cls-19{fill:#ffb49b}.cls-20{fill:#e6dcdc}.cls-21{fill:#f5f0f0}.cls-22{font-size:47px;font-family:Helvetica;letter-spacing:.05em}
        </style>
        <clipPath id="clip-path">
            <rect id="Rectangle_986" width="494.511" height="501.29" class="cls-1" data-name="Rectangle 986" rx="5" transform="translate(0 -128)"/>
        </clipPath>
    </defs>
    <g id="Group_2438" data-name="Group 2438" transform="translate(0 128)">
        <g id="Group_2437" class="cls-2" data-name="Group 2437">
            <g id="Group_2436" data-name="Group 2436" transform="translate(53.744 13.85)">
                <path id="Path_2543" d="M113.063 202.223c14.773-42.141 63.943-43.723 96.525-77.035s27.841-70.08 61.268-97.228 3.269-17.66 72.437-11.36S483.166-30.727 533.4 27.961s7.5 173.984 10.846 223.388c1.513 22.336 5.243 61.364 19.861 76.7 26.661 27.962 4.48 193.711-8.789 220.616-27.578 55.909-181.666 1.74-227.753-21.133-23.007-11.418 20.589-54.733 0-38.548-27.153 21.346-62.978 27.8-96.394 13.742-46.223-19.442-71.535-70.717-66.669-121.162a103.383 103.383 0 0 0-25.6-78.508c-19.872-22.201-40.613-58.691-25.839-100.833z" class="cls-3" data-name="Path 2543" transform="translate(-74.02 -175.82)"/>
                <g id="Group_2432" data-name="Group 2432" transform="translate(0 142.581)">
                    <path id="Path_2544" d="M356.4 310.841s10.6.391 9.467 9.9c0 0-.408 10.623-1.446 43.229" class="cls-4" data-name="Path 2544" transform="translate(-273.902 -182.431)"/>
                    <g id="Group_2428" data-name="Group 2428" transform="translate(80.349)">
                        <path id="Path_2545" d="M314.853 223.058a35.764 35.764 0 0 1 15.647 21s-16.513-22.3-37.746-14.068c0-.005 12.346-13.328 22.099-6.932z" class="cls-5" data-name="Path 2545" transform="translate(-229.624 -218.336)"/>
                        <path id="Path_2546" d="M390.027 226s-23.964-11.22-28.4 31.987c-2.712 26.381-14.484 44.452-41.641 50.486 0 0-55.522-51.532 27.157-87.623 0 0 9.723-3.738 17.233 0-.004.002 16.75-2.55 25.651 5.15z" class="cls-6" data-name="Path 2546" transform="translate(-301.739 -219.19)"/>
                        <path id="Path_2547" d="M367.853 221.321s-23.8 19.572-32.382 34.677c-10.68 18.8-8.925 39.464-13.882 138.941" class="cls-7" data-name="Path 2547" transform="translate(-307.378 -218.336)"/>
                    </g>
                    <g id="Group_2429" data-name="Group 2429" transform="translate(0 49.259)">
                        <path id="Path_2548" d="M413.04 259.076a26.136 26.136 0 0 0-9.728 16.477s10.255-17.49 26.326-13.172c0 0-10.015-8.715-16.598-3.305z" class="cls-5" data-name="Path 2548" transform="translate(-403.312 -253.162)"/>
                        <path id="Path_2549" d="M368.26 262.019s16.534-10.026 23.139 21.019c4.032 18.955 14 31.166 34.2 33.427 0 0 36.312-41.782-26.581-61.541 0 0-7.357-1.957-12.521 1.346.003 0-12.372-.545-18.237 5.749z" class="cls-6" data-name="Path 2549" transform="translate(-360.592 -254.348)"/>
                        <path id="Path_2550" d="M370.624 256.287s18.755 8.3 26.238 22.662c10.5 20.153 11.9 39.218 18.309 87.849" class="cls-8" data-name="Path 2550" transform="translate(-343.047 -253.571)"/>
                    </g>
                    <g id="Group_2430" data-name="Group 2430" transform="translate(73.182 86.439)">
                        <path id="Path_2551" d="M384.947 296.588s-40.05.272-45.927 17.275c-7.658-2.473-11.321-18.336 2.991-27.734s42.722 4.05 42.936 10.459z" class="cls-5" data-name="Path 2551" transform="translate(-332.275 -280.078)"/>
                        <path id="Path_2552" d="M355.911 285.226s14.739-4.059 22.643 5.981c12.283 15.6-.427 57.206-16.662 57.248-11.2.028-18.648-29.28-23.71-38.022-7.049-12.177-13.03-22.151-26.487-23.5a49.953 49.953 0 0 1 44.216-1.707z" class="cls-6" data-name="Path 2552" transform="translate(-301.959 -280.885)"/>
                        <path id="Path_2553" d="M327.507 287.792l-1-1.118-1.1-1.009c-.4-.29-.775-.614-1.182-.873l-.611-.382c-.189-.094-.416-.226-.563-.284a24.011 24.011 0 0 1 2.691-.511c.284.228.562.461.846.689l1.176 1.167c.359.415.7.842 1.049 1.264a27.941 27.941 0 0 1 1.8 2.718 24.1 24.1 0 0 1 1.4 2.918 22.768 22.768 0 0 1 1.056 3.036l.425 1.545c.067.258.148.513.2.773l.134.787c.174 1.051.373 2.1.521 3.147l.242 3.171a27.464 27.464 0 0 1 .062 3.168c-.02 1.055 0 2.111-.052 3.164l-.28 3.148c-.109 1.047-.141 2.1-.345 3.136l-.5 3.113c-.185 1.034-.29 2.081-.556 3.1l-1.4 6.137 1.164-6.18c.226-1.023.29-2.074.436-3.109l.381-3.116c.163-1.034.154-2.083.224-3.126l.158-3.126c.008-1.042-.049-2.085-.07-3.126a26.8 26.8 0 0 0-.178-3.112l-.354-3.092c-.185-1.019-.419-2.026-.625-3.038l-.158-.758c-.062-.249-.151-.492-.226-.738l-.465-1.47a21.242 21.242 0 0 0-1.118-2.858 22.6 22.6 0 0 0-1.418-2.7 11.524 11.524 0 0 0-.848-1.255 11.824 11.824 0 0 0-.916-1.2z" class="cls-9" data-name="Path 2553" transform="translate(-269.073 -279.79)"/>
                        <path id="Path_2554" d="M369.263 291.606s-13.973 4.788-8.632 17c0 0 1.051 19.965 8.632 60.246" class="cls-4" data-name="Path 2554" transform="translate(-354.614 -276.585)"/>
                    </g>
                    <path id="Path_2555" d="M356.722 379.777h23.36a4.989 4.989 0 0 0 4.912-4.116l7.675-43.178h-48.534l7.674 43.178a4.991 4.991 0 0 0 4.913 4.116z" class="cls-10" data-name="Path 2555" transform="translate(-283.432 -173.752)"/>
                    <rect id="Rectangle_984" width="55.876" height="11.896" class="cls-11" data-name="Rectangle 984" rx="1.892" transform="translate(57.032 154.973)"/>
                    <g id="Group_2431" data-name="Group 2431" transform="translate(38.256 120.463)">
                        <path id="Path_2556" d="M354.67 321.967s27.6-8.13 35.174 2.344c4.754-3.291 3.979-14.962-7.817-18.454s-28.541 11.657-27.357 16.11z" class="cls-5" data-name="Path 2556" transform="translate(-336.268 -305.101)"/>
                        <path id="Path_2557" d="M377.13 313.933s-10.98.269-14.332 8.816c-5.208 13.281 22.033 32.84 22.033 32.84s-.193-21.427 2.267-28.255c5.122-14.217 11.822-17.687 20.8-21.407a35.886 35.886 0 0 0-30.768 8.006z" class="cls-6" data-name="Path 2557" transform="translate(-362.137 -305.169)"/>
                        <path id="Path_2558" d="M383.755 314.872l.457-.978.544-.921c.213-.282.406-.583.632-.846l.342-.391c.109-.1.24-.241.328-.312a17.145 17.145 0 0 0-1.957.207c-.148.216-.291.434-.438.65l-.566 1.047c-.161.36-.307.726-.46 1.087a9.262 9.262 0 0 0-.371 1.114 9.409 9.409 0 0 0-.3 1.129 17.164 17.164 0 0 0-.353 2.3 16.139 16.139 0 0 0-.1 2.309l.029 1.15c.007.192 0 .384.021.574l.07.57c.1.758.179 1.519.294 2.273l.493 2.23a19.468 19.468 0 0 0 .615 2.191c.233.722.44 1.451.692 2.165l.846 2.107c.293.7.535 1.417.888 2.085l.992 2.037c.343.673.632 1.372 1.027 2.016l2.237 3.93-2.085-4.008c-.367-.657-.63-1.366-.946-2.048l-.909-2.064c-.325-.677-.538-1.4-.8-2.1l-.759-2.117c-.223-.716-.4-1.444-.6-2.165a19.15 19.15 0 0 1-.523-2.177l-.4-2.2c-.084-.738-.133-1.481-.2-2.219l-.048-.553c-.01-.185 0-.37 0-.555l.015-1.108a15.162 15.162 0 0 1 .175-2.2 16.142 16.142 0 0 1 .415-2.151 8.334 8.334 0 0 1 .322-1.04 8.158 8.158 0 0 1 .381-1.018z" class="cls-9" data-name="Path 2558" transform="translate(-371.082 -302.66)"/>
                    </g>
                </g>
                <g id="Group_2434" data-name="Group 2434" transform="translate(48.803 122.16)">
                    <path id="Path_2559" d="M129.166 249.719a45.381 45.381 0 0 1 53.648-37.755 44.29 44.29 0 0 1 13.831 5.227 59.957 59.957 0 0 0 27.747 8.053 57.636 57.636 0 0 1 6.205.6 57 57 0 0 1 45.319 37.552 37.023 37.023 0 0 0 21.987 22.8 57.036 57.036 0 0 1-26.052 110.249c-8.846-1.027-16.928-6.582-23.907-13.857-17.8-18.556-43.8-26.136-69.286-22.738a22.744 22.744 0 0 1-3.9.209 45.393 45.393 0 0 1-43.266-52.13q.149-.988.339-1.962c2.352-12.023 2.418-24.461-1.187-36.17a45.157 45.157 0 0 1-1.478-20.078z" class="cls-12" data-name="Path 2559" transform="translate(26.927 -202.013)"/>
                    <path id="Path_2560" d="M276.825 244.7c.891 5.275-1.7 10.112-5.8 10.8s-8.133-3.024-9.024-8.3 1.7-10.11 5.795-10.8 8.137 3.024 9.029 8.3z" class="cls-13" data-name="Path 2560" transform="translate(-101.249 -191.899)"/>
                    <ellipse id="Ellipse_114" cx="12.372" cy="9.6" class="cls-14" data-name="Ellipse 114" rx="12.372" ry="9.6" transform="rotate(-99.599 110.702 -35.956)"/>
                    <path id="Path_2561" d="M222.129 393.773s-20.54-56.793-15.188-83.464c3.3-16.443 19.769-43.438 51.674-43.433 21.277 0 60.232 14.2 57.591 52.536-1.543 22.4-5.879 49.321-26.288 74.4.001.004-36.071 17.221-67.789-.039z" class="cls-15" data-name="Path 2561" transform="translate(-62.436 -179.643)"/>
                    <path id="Path_2562" d="M234.8 350.414c-1.761-26.033-3.036-60.286-6.166-76.764a49.505 49.505 0 0 1 25.48-6.774 70.331 70.331 0 0 1 26.078 5.559c-3.1 15.126-6.051 30.283-7.983 45.611-2.226 17.668-2.55 35.43-2.371 53.218q.139 13.764.871 27.5c-8.929 2.2-21.03 3.825-33.732 1.641.623-16.305-1.077-33.695-2.177-49.991z" class="cls-14" data-name="Path 2562" transform="translate(-57.935 -179.643)"/>
                    <path id="Path_2563" d="M249.544 351.269c11.469-5.665 22.187-13.682 32.239-21.543 9-7.04 17.711-14.975 23.579-24.873-1.585 22.266-6.034 48.9-26.241 73.732 0 0-36.072 17.216-67.789-.043 0 0-2.3-6.355-5.155-15.807 14.982-1.298 29.687-4.71 43.367-11.466z" class="cls-16" data-name="Path 2563" transform="translate(-51.638 -164.412)"/>
                    <path id="Path_2564" d="M250.443 293.551a11.163 11.163 0 0 0 11.162-11.164l-2.8-39.639h-16.72l-2.8 39.639a11.163 11.163 0 0 0 11.158 11.164z" class="cls-17" data-name="Path 2564" transform="translate(-54.263 -189.321)"/>
                    <path id="Path_2565" d="M242.469 249.687l17.889-1.617.651 9.209c-1.547 10.222-8.68 21.274-18.469 21.274a13.774 13.774 0 0 1-2.1-.177z" class="cls-18" data-name="Path 2565" transform="translate(-55.291 -187.186)"/>
                    <path id="Path_2566" d="M262.3 280.643c9.621-1.711 17.69-14.3 17.806-24.073.1-8.51-2.584-21.043-2.584-21.043s-30.224-6.9-36 0c-4.244 5.076 1.653 20.138 3.541 26.479 2.793 9.366 13.037 19.383 17.237 18.637z" class="cls-19" data-name="Path 2566" transform="translate(-73.815 -193.448)"/>
                    <path id="Path_2567" d="M245.073 243.381a7.861 7.861 0 0 1-6.31 9.152L236 236.963a7.86 7.86 0 0 1 9.073 6.418z" class="cls-17" data-name="Path 2567" transform="translate(-33.255 -191.689)"/>
                    <path id="Path_2568" d="M239.276 237.225l29.361-5.218 1.149 6.459c3.025-.367 7.727-.59 8.273 2.484.141.8 2.984 5.366 2.816 6.106-.775-.144-6.271-1.87-6.96-2.207a7.759 7.759 0 0 0-4.733-.566 15.269 15.269 0 0 1-9.964-1.681 16.851 16.851 0 0 0-13.554-1.356 19.276 19.276 0 0 1-2.932.764 21.029 21.029 0 0 1-2.558.263z" class="cls-17" data-name="Path 2568" transform="translate(-73.533 -193.629)"/>
                    <path id="Path_2569" d="M248.138 204.864a22.745 22.745 0 0 1 17.97 5.069c5.063 4.23 11.608 6.018 18.2 6.133l.234.006a18.42 18.42 0 0 1 16.59 11.842 19.324 19.324 0 0 1 .8 2.736 20.165 20.165 0 0 0 3.665 8.4 8.876 8.876 0 0 1 1.782 3.961c.925 5.2-2.826 10.222-8.378 11.209a10.509 10.509 0 0 1-6.452-.876 9.23 9.23 0 0 0-5.627-.674 18.144 18.144 0 0 1-11.843-2 20.037 20.037 0 0 0-16.112-1.611 22.848 22.848 0 0 1-30.087-18.248c-1.775-11.96 7.303-24.171 19.258-25.947z" class="cls-12" data-name="Path 2569" transform="translate(-85.294 -204.615)"/>
                    <path id="Path_2570" d="M354.875 357.871h-112.9a3.246 3.246 0 0 0-3.057 4.338l2.023 5.665a3.247 3.247 0 0 0 3.059 2.153h112.9a3.246 3.246 0 0 0 3.059-4.338l-2.025-5.665a3.245 3.245 0 0 0-3.059-2.153z" class="cls-20" data-name="Path 2570" transform="translate(-152.034 -143.148)"/>
                    <path id="Path_2571" d="M337.219 282.477s-28.26 41.695-35.659 58.639c-10.616 24.317-27.332 50.317-27.332 50.317s27.558-.838 39.053-15.374c0 0 2.246-9.984 3.74-20.868 1.409-10.268 24.246-30.941 24.246-30.941z" class="cls-15" data-name="Path 2571" transform="translate(-182.887 -173.386)"/>
                    <path id="Path_2572" d="M285.295 389.612h104.061l-17.373-80.572H267.922z" class="cls-20" data-name="Path 2572" transform="translate(-222.142 -162.732)"/>
                    <path id="Path_2573" d="M288.295 389.612h105.462l-17.372-80.572H270.922z" class="cls-21" data-name="Path 2573" transform="translate(-230.746 -162.732)"/>
                    <ellipse id="Ellipse_115" cx="11.521" cy="11.521" class="cls-14" data-name="Ellipse 115" rx="11.521" ry="11.521" transform="rotate(-100.363 129.538 61.51)"/>
                    <path id="Rectangle_985" d="M0 0h323.455v10.478H0z" class="cls-20" data-name="Rectangle 985" transform="translate(0 226.446)"/>
                    <path id="Path_2574" d="M238.51 370.848a2.024 2.024 0 0 1-.719-3.919 257.792 257.792 0 0 1 29.089-9.107l18.051-3.574L286 364.71l-12.512 6.138z" class="cls-19" data-name="Path 2574" transform="translate(-74.734 -144.601)"/>
                    <path id="Path_2575" d="M236.478 356.577l11.761-2.329 1.072 10.462-12.511 6.138c2.05-4.78 3.986-9.586-.322-14.271z" class="cls-17" data-name="Path 2575" transform="translate(-38.041 -144.601)"/>
                    <path id="Path_2576" d="M214.453 277.946s44.207 52.84 51.737 79.063c4.607 16.042 2.86 27.052-12.8 37.779a41.255 41.255 0 0 1-23.8 6.891H182.8a4.407 4.407 0 0 1-4.233-3.476c0-.006-2.193-19.761 11.423-24.885 12.726-4.789 36.38-6.557 38.387-22.005 1.04-8-27.391-44.743-27.391-44.743s3.035-22.342 13.467-28.624z" class="cls-15" data-name="Path 2576" transform="translate(24.165 -175.204)"/>
                    <g id="Group_2433" data-name="Group 2433" transform="translate(178.843 3.873)">
                        <path id="Path_2577" d="M241.452 210.181a12.287 12.287 0 0 0-3.667-2.8h6.2a24.423 24.423 0 0 1 24.394 24.394v14.2h-2.8v-14.2a21.616 21.616 0 0 0-21.592-21.592z" class="cls-13" data-name="Path 2577" transform="translate(-237.785 -207.379)"/>
                    </g>
                    <ellipse id="Ellipse_116" cx="9.6" cy="12.372" class="cls-14" data-name="Ellipse 116" rx="9.6" ry="12.372" transform="translate(198.436 38.378)"/>
                    <path id="Path_2578" d="M230.633 243.61c0 5.349 3.365 9.686 7.515 9.686s7.515-4.336 7.515-9.686-3.364-9.686-7.515-9.686-7.515 4.336-7.515 9.686z" class="cls-13" data-name="Path 2578" transform="translate(-26.205 -192.86)"/>
                </g>
                <path id="Path_2579" d="M237.634 169.159a31.861 31.861 0 1 1 11.891 12.656h-11.891z" class="cls-14" data-name="Path 2579" transform="translate(-34.327 -115.346)"/>
                <path id="Path_2580" d="M173.3 212.153a31.861 31.861 0 1 1 11.891 12.656H173.3z" class="cls-14" data-name="Path 2580" transform="translate(120.134 -98.102)"/>
                <path id="Path_2581" d="M364.613 208.43a31.861 31.861 0 1 0-11.891 12.656h11.891z" class="cls-14" data-name="Path 2581" transform="translate(-203.353 -99.595)"/>
                <text id="_" class="cls-22" data-name="?" transform="translate(336.469 116.229)">
                    <tspan x="-26.139" y="0">?</tspan>
                </text>
                <g id="Group_2435" data-name="Group 2435" transform="translate(218.989 35.984)">
                    <ellipse id="Ellipse_117" cx="3.152" cy="3.152" class="cls-6" data-name="Ellipse 117" rx="3.152" ry="3.152" transform="translate(18.914)"/>
                    <ellipse id="Ellipse_118" cx="3.152" cy="3.152" class="cls-6" data-name="Ellipse 118" rx="3.152" ry="3.152" transform="translate(9.457)"/>
                    <ellipse id="Ellipse_119" cx="3.152" cy="3.152" class="cls-6" data-name="Ellipse 119" rx="3.152" ry="3.152"/>
                </g>
                <path id="Path_2582" d="M324.213 185.706l2.809-2.811a3.171 3.171 0 0 0 0-4.485l-4.154-4.154a3.172 3.172 0 0 0-4.484 0l-.752.752a9.106 9.106 0 0 0-1.132 11.522 67.185 67.185 0 0 0 18.238 18.239 9.109 9.109 0 0 0 11.524-1.133l.751-.751a3.171 3.171 0 0 0 0-4.485l-4.154-4.154a3.171 3.171 0 0 0-4.485 0l-2.809 2.811a59.417 59.417 0 0 1-11.352-11.351z" class="cls-6" data-name="Path 2582" transform="translate(-197.818 -95.003)"/>
            </g>
        </g>
    </g>
</svg>
